<svg version="1.1" xmlns="http://www.w3.org/2000/svg" viewBox="0 0 796.4321575776985 227.6666259765625" width="2389.2964727330955" height="682.9998779296875">
  <!-- svg-source:excalidraw -->
  
  <defs>
    <style class="style-fonts">
      @font-face {
        font-family: "Virgil";
        src: url("https://excalidraw.com/Virgil.woff2");
      }
      @font-face {
        font-family: "Cascadia";
        src: url("https://excalidraw.com/Cascadia.woff2");
      }
    </style>
  </defs>
  <rect x="0" y="0" width="796.4321575776985" height="227.6666259765625" fill="#ffffff"></rect><g stroke-linecap="round" transform="translate(112.83335876464844 137.33328247070312) rotate(0 60.66667175292969 40.16667175292969)"><path d="M20.08 0 M20.08 0 C37.96 -0.85, 55.18 0.31, 101.25 0 M20.08 0 C41.5 -0.24, 62.49 0.15, 101.25 0 M101.25 0 C114.63 0.09, 120.61 8.29, 121.33 20.08 M101.25 0 C115.14 -1.77, 122.59 5.81, 121.33 20.08 M121.33 20.08 C122.7 36.63, 119.39 52.3, 121.33 60.25 M121.33 20.08 C121.24 35.2, 121.18 48.94, 121.33 60.25 M121.33 60.25 C120.27 74.36, 114.99 79.74, 101.25 80.33 M121.33 60.25 C121.06 75.14, 116 81.93, 101.25 80.33 M101.25 80.33 C81.9 81.13, 62.41 79.87, 20.08 80.33 M101.25 80.33 C79.38 81.88, 57.73 81.09, 20.08 80.33 M20.08 80.33 C7.45 79.88, -1.81 73.56, 0 60.25 M20.08 80.33 C8.66 78.43, -1.32 74.86, 0 60.25 M0 60.25 C1.45 52.69, 0.03 43.06, 0 20.08 M0 60.25 C-0.84 47.43, -0.94 34.5, 0 20.08 M0 20.08 C-1.98 4.73, 5.57 1.44, 20.08 0 M0 20.08 C-2.03 4.75, 7.02 -1.07, 20.08 0" stroke="#000000" stroke-width="1" fill="none"></path></g><g transform="translate(151.14005279541016 164.9999542236328) rotate(0 22.35997772216797 12.5)"><text x="22.35997772216797" y="0" font-family="Virgil, Segoe UI Emoji" font-size="20px" fill="#000000" text-anchor="middle" style="white-space: pre;" direction="ltr" dominant-baseline="text-before-edge">Filme</text></g><g stroke-linecap="round" transform="translate(315.16664123535156 136.66665649414062) rotate(0 71 37.33332824707031)"><path d="M90 9.5 M90 9.5 C101.04 16.09, 111.31 19.57, 124 28.5 M90 9.5 C99.66 15.94, 109.59 20.7, 124 28.5 M124 28.5 C143.44 39.32, 143.65 37.89, 124 47.5 M124 28.5 C143.4 38.68, 142.14 39.65, 124 47.5 M124 47.5 C118.07 49.07, 107.25 53.79, 90 65.17 M124 47.5 C111.34 53.32, 97.56 61.24, 90 65.17 M90 65.17 C71.36 74.65, 73.3 73.3, 54 65.17 M90 65.17 C72.01 76.87, 73.1 76, 54 65.17 M54 65.17 C41.06 59.04, 28.77 54.07, 18 47.5 M54 65.17 C46.43 61.3, 37.34 57.5, 18 47.5 M18 47.5 C1.72 39.36, 1.22 37.98, 18 28.5 M18 47.5 C1.4 38.4, 2.13 37.94, 18 28.5 M18 28.5 C23.93 23.99, 33.11 20.57, 54 9.5 M18 28.5 C26.56 22.76, 35.35 18.65, 54 9.5 M54 9.5 C72.91 -0.46, 73.41 -1.27, 90 9.5 M54 9.5 C73 1.14, 71.05 -1.29, 90 9.5" stroke="#000000" stroke-width="1" fill="none"></path></g><g transform="translate(356.96668243408203 161.33332061767578) rotate(0 29.19995880126953 12.5)"><text x="29.19995880126953" y="0" font-family="Virgil, Segoe UI Emoji" font-size="20px" fill="#000000" text-anchor="middle" style="white-space: pre;" direction="ltr" dominant-baseline="text-before-edge">possui</text></g><g stroke-linecap="round" transform="translate(507.83338928222656 135.33328247070312) rotate(0 72.33331298828125 36.5)"><path d="M18.25 0 M18.25 0 C59.32 -1.29, 97.27 -2.06, 126.42 0 M18.25 0 C56.74 -1.12, 95.51 -0.7, 126.42 0 M126.42 0 C140.15 -0.2, 146.42 6.06, 144.67 18.25 M126.42 0 C138.79 -0.48, 146.63 8.02, 144.67 18.25 M144.67 18.25 C146.57 24.27, 146.47 34.37, 144.67 54.75 M144.67 18.25 C145.21 28.81, 144.48 38.56, 144.67 54.75 M144.67 54.75 C145.97 67.01, 138.63 71.15, 126.42 73 M144.67 54.75 C144.94 66.55, 137 73.75, 126.42 73 M126.42 73 C100.14 74.58, 77.09 72.34, 18.25 73 M126.42 73 C84.31 72.92, 43.25 74.22, 18.25 73 M18.25 73 C7.57 73.38, 1.06 67.15, 0 54.75 M18.25 73 C8.07 70.77, 1.47 66.48, 0 54.75 M0 54.75 C-0.42 45.57, -0.6 35.04, 0 18.25 M0 54.75 C1.15 39.95, 0.94 25.89, 0 18.25 M0 18.25 C-1.83 6.01, 5.89 0.8, 18.25 0 M0 18.25 C-1.09 4.06, 5.88 0.78, 18.25 0" stroke="#000000" stroke-width="1" fill="none"></path></g><g transform="translate(528.7567443847656 159.33328247070312) rotate(0 51.40995788574219 12.5)"><text x="51.40995788574219" y="0" font-family="Virgil, Segoe UI Emoji" font-size="20px" fill="#000000" text-anchor="middle" style="white-space: pre;" direction="ltr" dominant-baseline="text-before-edge">Avaliações</text></g><g stroke-linecap="round" transform="translate(10 44.16668701171875) rotate(0 28.73454469280938 29.5)"><path d="M20.32 1.98 C25.95 -0.16, 34.02 0.4, 39.68 2.69 C45.33 4.99, 51.37 10.18, 54.26 15.75 C57.16 21.32, 58.25 30, 57.04 36.11 C55.84 42.23, 51.79 48.66, 47.03 52.44 C42.27 56.23, 34.78 58.92, 28.48 58.83 C22.19 58.74, 14.12 56.11, 9.26 51.9 C4.41 47.7, 0.31 40.11, -0.65 33.61 C-1.61 27.1, -0.31 18.4, 3.49 12.86 C7.29 7.33, 18.66 2.24, 22.16 0.4 C25.66 -1.43, 24.41 1.24, 24.51 1.86 M38.04 2.3 C44 4.05, 51.18 8.64, 54.43 13.79 C57.67 18.94, 58.55 26.61, 57.5 33.19 C56.46 39.78, 53.02 49.2, 48.17 53.31 C43.31 57.42, 34.72 57.87, 28.39 57.84 C22.06 57.82, 14.65 57, 10.2 53.16 C5.75 49.32, 2.55 41.34, 1.69 34.81 C0.82 28.29, 2.09 19.35, 5.03 14.01 C7.98 8.67, 13.95 4.86, 19.35 2.77 C24.76 0.68, 34.23 1.48, 37.47 1.47 C40.71 1.46, 38.72 2.04, 38.81 2.71" stroke="#000000" stroke-width="1" fill="none"></path></g><g transform="translate(24.248497341391726 57.99071043610334) rotate(0 14.667655944824219 15.816326530612272)"><text x="14.667655944824219" y="0" font-family="Virgil, Segoe UI Emoji" font-size="12.653061224489814px" fill="#000000" text-anchor="middle" style="white-space: pre;" direction="ltr" dominant-baseline="text-before-edge">id_fi</text><text x="14.667655944824219" y="15.816326530612269" font-family="Virgil, Segoe UI Emoji" font-size="12.653061224489814px" fill="#000000" text-anchor="middle" style="white-space: pre;" direction="ltr" dominant-baseline="text-before-edge">lme</text></g><g stroke-linecap="round"><g transform="translate(233.83335876464844 175.99996948242188) rotate(0 50.80795965786558 -0.8915122619923181)"><path d="M0.09 -0.99 C17.19 -1.05, 85.78 -0.85, 102.94 -0.96 M-1.32 1.1 C15.55 0.73, 84.54 -2.62, 101.79 -2.89" stroke="#000000" stroke-width="1" fill="none"></path></g></g><mask></mask><g stroke-linecap="round"><g transform="translate(440.50001525878906 172.6666259765625) rotate(0 39.55680022295098 -0.3998700233237287)"><path d="M0.95 -1.19 C14.1 -1.55, 66.17 -1.6, 79.12 -1.6 M-0.01 0.8 C12.98 0.61, 65.28 0.65, 78.23 -0.03" stroke="#000000" stroke-width="1" fill="none"></path></g></g><mask></mask><g transform="translate(276.50001525878906 153.33328247070312) rotate(0 2.7099990844726562 12.5)"><text x="0" y="0" font-family="Virgil, Segoe UI Emoji" font-size="20px" fill="#000000" text-anchor="start" style="white-space: pre;" direction="ltr" dominant-baseline="text-before-edge">1</text></g><g stroke-linecap="round" transform="translate(129.45558471679692 10) rotate(0 28.544445800781233 28.97369888360683)"><path d="M34.05 -0.24 C39.89 0.56, 46.48 6.48, 50.15 11.17 C53.83 15.86, 56.04 21.91, 56.09 27.9 C56.15 33.9, 54.07 42.31, 50.49 47.13 C46.9 51.95, 40.42 55.47, 34.56 56.8 C28.7 58.14, 20.67 58.24, 15.33 55.14 C10 52.04, 4.92 44.3, 2.55 38.18 C0.17 32.06, -0.96 23.97, 1.08 18.43 C3.12 12.89, 9.06 7.88, 14.79 4.94 C20.52 2, 31.59 1.18, 35.47 0.8 C39.34 0.42, 38.06 2.2, 38.01 2.66 M14.85 3.27 C19.72 0.18, 29.39 -1.02, 35.45 0.5 C41.5 2.01, 47.53 7.41, 51.16 12.35 C54.8 17.3, 57.61 24.04, 57.28 30.18 C56.95 36.31, 53.45 44.45, 49.17 49.19 C44.88 53.93, 37.61 58.05, 31.57 58.61 C25.52 59.18, 18.08 56.36, 12.91 52.6 C7.75 48.84, 2.44 41.72, 0.59 36.06 C-1.26 30.39, -0.95 24.11, 1.82 18.59 C4.59 13.07, 15.03 5.66, 17.21 2.94 C19.39 0.21, 14.78 1.71, 14.92 2.27" stroke="#000000" stroke-width="1" fill="none"></path></g><g transform="translate(144.3459512944073 31.333138702461525) rotate(0 13.470108032226562 7.653061224489804)"><text x="13.470108032226562" y="0" font-family="Virgil, Segoe UI Emoji" font-size="12.24489795918369px" fill="#000000" text-anchor="middle" style="white-space: pre;" direction="ltr" dominant-baseline="text-before-edge">nome</text></g><g transform="translate(478.50001525878906 147.33328247070312) rotate(0 4.6699981689453125 12.5)"><text x="0" y="0" font-family="Virgil, Segoe UI Emoji" font-size="20px" fill="#000000" text-anchor="start" style="white-space: pre;" direction="ltr" dominant-baseline="text-before-edge">n</text></g><g stroke-linecap="round" transform="translate(646.4556762695313 34.19289657537752) rotate(0 28.54444580078126 28.97369888360683)"><path d="M40.27 3.14 C45.76 4.96, 51.83 10.54, 54.56 15.84 C57.3 21.14, 58.18 28.73, 56.67 34.94 C55.16 41.15, 50.44 49.15, 45.5 53.1 C40.56 57.05, 33.18 59.07, 27.02 58.66 C20.85 58.25, 12.83 54.85, 8.52 50.63 C4.21 46.4, 1.81 39.42, 1.17 33.3 C0.54 27.19, 1.55 19.12, 4.71 13.93 C7.87 8.75, 13.15 3.52, 20.14 2.2 C27.12 0.87, 41.41 4.18, 46.6 5.99 C51.8 7.79, 51.56 12.59, 51.31 13.03 M17.27 2.47 C22.66 -0.52, 30.78 -0.83, 36.63 0.74 C42.48 2.32, 49 6.83, 52.37 11.93 C55.75 17.03, 57.62 24.93, 56.87 31.35 C56.11 37.77, 52.08 45.85, 47.83 50.43 C43.58 55.02, 37.65 58.53, 31.37 58.85 C25.09 59.16, 15.46 56.25, 10.15 52.34 C4.85 48.43, 0.97 41.63, -0.47 35.39 C-1.91 29.16, -1.31 20.23, 1.51 14.94 C4.33 9.65, 13.82 5.59, 16.47 3.68 C19.12 1.76, 17.25 3.3, 17.41 3.43" stroke="#000000" stroke-width="1" fill="none"></path></g><g transform="translate(661.0277979130595 55.52603527783904) rotate(0 13.788352966308594 7.653061224489804)"><text x="13.788352966308594" y="0" font-family="Virgil, Segoe UI Emoji" font-size="12.24489795918369px" fill="#000000" text-anchor="middle" style="white-space: pre;" direction="ltr" dominant-baseline="text-before-edge">nota</text></g><g stroke-linecap="round" transform="translate(526.1667022705078 22.99993896484375) rotate(0 51.5 38)"><path d="M61.3 1.59 C69.93 2.42, 80.93 6.99, 87.72 11.66 C94.51 16.34, 100.14 22.95, 102.05 29.65 C103.96 36.34, 102.27 45.53, 99.2 51.83 C96.13 58.13, 90.97 63.45, 83.63 67.46 C76.28 71.47, 64.57 75.23, 55.13 75.91 C45.7 76.58, 34.99 74.6, 27.02 71.52 C19.05 68.44, 11.84 63.32, 7.31 57.43 C2.78 51.53, -0.62 43.2, -0.16 36.16 C0.3 29.12, 4.64 20.9, 10.07 15.19 C15.51 9.48, 23.61 4.29, 32.44 1.92 C41.27 -0.45, 57.67 1, 63.05 0.98 C68.42 0.95, 64.87 1.06, 64.69 1.76 M67.4 2.06 C75.93 3.45, 86.15 8.63, 92.02 14.07 C97.89 19.5, 101.88 27.94, 102.61 34.67 C103.34 41.4, 100.44 48.26, 96.39 54.45 C92.34 60.64, 86.02 68.05, 78.31 71.83 C70.59 75.61, 59.5 77.6, 50.12 77.12 C40.73 76.65, 29.47 73.19, 22 68.98 C14.53 64.78, 8.57 57.99, 5.28 51.88 C2 45.77, 0.66 39.12, 2.29 32.3 C3.93 25.49, 9.18 16.09, 15.1 10.98 C21.02 5.88, 28.92 3.15, 37.82 1.67 C46.71 0.19, 63.44 1.99, 68.47 2.09 C73.49 2.19, 68.24 1.85, 67.98 2.26" stroke="#000000" stroke-width="1" fill="none"></path></g><g transform="translate(547.2833721067834 54.29566611220645) rotate(0 30.467330932617188 6.834215167548507)"><text x="30.467330932617188" y="0" font-family="Virgil, Segoe UI Emoji" font-size="10.934744268077605px" fill="#000000" text-anchor="middle" style="white-space: pre;" direction="ltr" dominant-baseline="text-before-edge">comentários</text></g><g stroke-linecap="round" transform="translate(249.45549316406255 12.859583587096267) rotate(0 31.5 30)"><path d="M37.4 1.46 C43.96 2.52, 52.6 6.75, 56.74 11.59 C60.89 16.42, 62.48 23.89, 62.27 30.46 C62.05 37.03, 60 46.21, 55.47 50.99 C50.94 55.77, 42.01 58.39, 35.1 59.15 C28.19 59.9, 19.6 58.92, 14.01 55.52 C8.43 52.13, 3.64 45.02, 1.61 38.79 C-0.41 32.57, -0.7 24.09, 1.88 18.15 C4.45 12.21, 9.89 5.74, 17.07 3.15 C24.25 0.55, 39.44 1.88, 44.94 2.57 C50.45 3.27, 50.32 6.87, 50.11 7.33 M25.16 0.89 C31.55 -0.26, 42.12 2.39, 48.28 5.46 C54.44 8.53, 60.1 13.27, 62.13 19.31 C64.17 25.35, 62.9 35.51, 60.51 41.68 C58.11 47.85, 53.54 53.12, 47.75 56.33 C41.96 59.53, 32.39 61.9, 25.79 60.9 C19.18 59.9, 12.55 55.4, 8.11 50.33 C3.67 45.26, -0.72 37.07, -0.84 30.47 C-0.96 23.87, 2.62 15.68, 7.37 10.73 C12.11 5.78, 24.36 2.4, 27.63 0.79 C30.9 -0.81, 26.96 0.57, 26.99 1.11" stroke="#000000" stroke-width="1" fill="none"></path></g><g transform="translate(266.0774806919402 34.99331892701002) rotate(0 15.104148864746094 7.653061224489804)"><text x="15.104148864746094" y="0" font-family="Virgil, Segoe UI Emoji" font-size="12.24489795918369px" fill="#000000" text-anchor="middle" style="white-space: pre;" direction="ltr" dominant-baseline="text-before-edge">data</text></g><g stroke-linecap="round"><g transform="translate(112.66668701171875 142.1666259765625) rotate(0 -26.442401880598624 -22.78554971421603)"><path d="M-0.64 -0.86 C-9.71 -8.63, -45.29 -39.39, -54.12 -46.88 M1.23 1.31 C-7.49 -6.31, -42.52 -38.2, -51.81 -45.8" stroke="#000000" stroke-width="1" fill="none"></path></g></g><mask></mask><g stroke-linecap="round"><g transform="translate(164 135.49996948242188) rotate(0 -1.6004457874363425 -35.53069152066951)"><path d="M1.17 1.1 C0.51 -10.58, -2.47 -58.3, -3.16 -70.25 M0.33 0.63 C-0.6 -11.4, -3.66 -60.51, -4.37 -72.16" stroke="#000000" stroke-width="1" fill="none"></path></g></g><mask></mask><g stroke-linecap="round"><g transform="translate(581.8333892822266 137.99996948242188) rotate(0 0.42147663067561325 -26.024904163661404)"><path d="M1.17 0.32 C1.14 -8.15, 0.68 -41.88, 0.41 -50.39 M0.32 -0.56 C0.12 -9.45, -0.02 -44.22, -0.32 -52.37" stroke="#000000" stroke-width="1" fill="none"></path></g></g><mask></mask><g stroke-linecap="round"><g transform="translate(224 136.1666259765625) rotate(0 21.43389088454191 -33.70801983962302)"><path d="M0.97 -0.12 C8.01 -10.92, 35.9 -54.64, 42.85 -65.69 M0.01 -1.22 C6.93 -12.27, 35.31 -56.67, 42.36 -67.3" stroke="#000000" stroke-width="1" fill="none"></path></g></g><mask></mask><g stroke-linecap="round"><g transform="translate(643.5000152587891 150.99996948242188) rotate(0 16.063854359639834 -30.271879658848036)"><path d="M-0.03 0.73 C5.22 -9.62, 26.1 -51.1, 31.29 -61.28 M-1.5 0.07 C4.16 -10.18, 27.79 -49.48, 33.63 -59.88" stroke="#000000" stroke-width="1" fill="none"></path></g></g><mask></mask><g stroke-linecap="round" transform="translate(707.4321575776985 145.16659545898438) rotate(0 39.5 30.5)"><path d="M36.22 0.49 C43.55 -0.45, 54.56 1.58, 61.29 4.8 C68.01 8.02, 73.86 14.44, 76.55 19.8 C79.24 25.15, 79.26 31.17, 77.41 36.92 C75.56 42.67, 71.4 50.21, 65.46 54.3 C59.52 58.4, 49.67 61.25, 41.78 61.48 C33.89 61.7, 24.63 58.78, 18.11 55.64 C11.59 52.5, 5.4 48.2, 2.65 42.61 C-0.11 37.02, -0.29 27.95, 1.6 22.11 C3.49 16.28, 7.69 11.39, 14 7.6 C20.3 3.81, 34.7 0.53, 39.45 -0.63 C44.2 -1.8, 42.53 -0.03, 42.49 0.61 M43.39 0.24 C50.51 0.7, 59.26 3.78, 65.21 8 C71.17 12.23, 77.41 19.76, 79.1 25.61 C80.8 31.46, 78.85 37.9, 75.38 43.12 C71.9 48.33, 65.26 53.76, 58.26 56.92 C51.26 60.08, 41.22 62.74, 33.36 62.07 C25.5 61.4, 16.64 57.07, 11.12 52.9 C5.59 48.73, 1.35 42.88, 0.21 37.07 C-0.93 31.26, 0.97 23.69, 4.27 18.06 C7.57 12.43, 13.45 6.29, 20.02 3.29 C26.59 0.29, 39.51 0.33, 43.7 0.04 C47.88 -0.25, 44.95 0.94, 45.14 1.57" stroke="#000000" stroke-width="1" fill="none"></path></g><g transform="translate(725.047383934697 159.78351210218239) rotate(0 21.954055786132812 15.816326530612258)"><text x="21.954055786132812" y="0" font-family="Virgil, Segoe UI Emoji" font-size="12.653061224489814px" fill="#000000" text-anchor="middle" style="white-space: pre;" direction="ltr" dominant-baseline="text-before-edge">id_ava</text><text x="21.954055786132812" y="15.816326530612269" font-family="Virgil, Segoe UI Emoji" font-size="12.653061224489814px" fill="#000000" text-anchor="middle" style="white-space: pre;" direction="ltr" dominant-baseline="text-before-edge">liacao</text></g><g stroke-linecap="round"><g transform="translate(647.5000152587891 179.33328247070312) rotate(0 35.00796606761867 0.1813940737719406)"><path d="M0.74 -0.72 C12.56 -0.81, 58.68 -1.14, 70.35 -1.16 M-0.34 1.52 C11.44 1.61, 57.94 0.16, 69.76 -0.05" stroke="#000000" stroke-width="1" fill="none"></path></g></g><mask></mask></svg>